<svg width="51px" height="24px" viewBox="0 0 51 24" version="1.1" xmlns="http://www.w3.org/2000/svg" xmlns:xlink="http://www.w3.org/1999/xlink">
    <g id="Page-1" stroke="none" stroke-width="1" fill="none" fill-rule="evenodd">
        <g id="index-copy" transform="translate(-182.000000, -214.000000)" fill="#1B2638">
            <g id="Group-2" transform="translate(130.000000, 207.000000)">
                <g id="logo" transform="translate(52.000000, 7.000000)">
                    <path d="M11.256,23.232 L0,23.232 L0,6.144 L11.256,6.144 L11.256,9.12 L3.336,9.12 L3.336,13.128 L10.08,13.128 L10.08,16.104 L3.336,16.104 L3.336,20.256 L11.256,20.256 L11.256,23.232 Z M26.592,16.176 C26.592,18.648 26.208,20.16 25.008,21.408 C23.784,22.68 22.176,23.376 20.232,23.376 C18.36,23.376 16.824,22.704 15.624,21.504 C13.896,19.776 13.944,17.64 13.944,14.688 C13.944,11.736 13.896,9.6 15.624,7.872 C16.824,6.672 18.312,6 20.232,6 C22.608,6 23.928,6.648 25.464,8.184 L23.208,10.44 C22.248,9.48 21.552,8.976 20.232,8.976 C19.32,8.976 18.576,9.336 18.096,9.888 C17.448,10.608 17.28,11.4 17.28,14.688 C17.28,17.976 17.448,18.792 18.096,19.512 C18.576,20.064 19.32,20.4 20.232,20.4 C21.24,20.4 21.96,20.04 22.512,19.44 C23.064,18.84 23.256,17.952 23.256,17.112 L23.256,16.512 L20.232,16.512 L20.232,13.728 L26.592,13.728 L26.592,16.176 Z M41.856,14.688 C41.856,17.64 41.88,19.776 40.152,21.504 C38.952,22.704 37.488,23.376 35.544,23.376 C33.6,23.376 32.112,22.704 30.912,21.504 C29.184,19.776 29.232,17.64 29.232,14.688 C29.232,11.736 29.184,9.6 30.912,7.872 C32.112,6.672 33.6,6 35.544,6 C37.488,6 38.952,6.672 40.152,7.872 C41.88,9.6 41.856,11.736 41.856,14.688 Z M38.52,14.688 C38.52,11.4 38.328,10.608 37.68,9.888 C37.2,9.336 36.456,8.976 35.544,8.976 C34.632,8.976 33.864,9.336 33.384,9.888 C32.736,10.608 32.568,11.4 32.568,14.688 C32.568,17.976 32.736,18.768 33.384,19.488 C33.864,20.04 34.632,20.4 35.544,20.4 C36.456,20.4 37.2,20.04 37.68,19.488 C38.328,18.768 38.52,17.976 38.52,14.688 Z" id="EGO"></path>
                    <path d="M45.5888672,0.696289062 L45.5888672,1.20898438 L44.1386719,1.20898438 L44.1386719,5 L43.546875,5 L43.546875,1.20898438 L42.0966797,1.20898438 L42.0966797,0.696289062 L45.5888672,0.696289062 Z M46.3074219,0.696289062 L47.1423828,0.696289062 L48.3787109,4.33496094 L49.60625,0.696289062 L50.4324219,0.696289062 L50.4324219,5 L49.8787109,5 L49.8787109,2.45996094 C49.8787109,2.37206987 49.880664,2.22656352 49.8845703,2.0234375 C49.8884766,1.82031148 49.8904297,1.60254022 49.8904297,1.37011719 L48.6628906,5 L48.0857422,5 L46.8494141,1.37011719 L46.8494141,1.50195312 C46.8494141,1.6074224 46.8518554,1.76806533 46.8567383,1.98388672 C46.8616211,2.19970811 46.8640625,2.35839793 46.8640625,2.45996094 L46.8640625,5 L46.3074219,5 L46.3074219,0.696289062 Z" id="TM"></path>
                </g>
            </g>
        </g>
    </g>
</svg>