<svg width="35px" height="36px" viewBox="0 0 35 36" version="1.1" xmlns="http://www.w3.org/2000/svg" xmlns:xlink="http://www.w3.org/1999/xlink">
    <g id="Page-1" stroke="none" stroke-width="1" fill="none" fill-rule="evenodd">
        <g id="index-copy" transform="translate(-245.000000, -2551.000000)" fill="#FFFFFF" fill-rule="nonzero">
            <g id="np_wallet_2086326_000000" transform="translate(245.000000, 2551.000000)">
                <path d="M33.4182386,21.7906813 L25.1065341,21.7906813 C23.4301932,21.7968626 22.0738636,23.1490286 22.0738636,24.816422 C22.0738636,26.4853978 23.4301932,27.8375341 25.1065341,27.8437055 L33.4182386,27.8437055 C33.7351756,27.8437055 34.0396875,27.7185323 34.2634091,27.494462 C34.4886858,27.2719345 34.6145267,26.9690598 34.6145267,26.6538026 L34.6145267,22.9805367 C34.6145267,22.6652875 34.4886818,22.3624048 34.2634091,22.1398774 C34.0396875,21.9158031 33.7351875,21.7906338 33.4182386,21.7906338 L33.4182386,21.7906813 Z M25.2958523,26.331033 C24.680608,26.331033 24.1259773,25.9617007 23.8913977,25.3961011 C23.6552472,24.8305055 23.7857534,24.1799341 24.2207676,23.747222 C24.6557818,23.3145099 25.3098642,23.1847121 25.8784949,23.4196141 C26.4471256,23.6529574 26.8184438,24.2046514 26.8184438,24.8165723 C26.8184438,25.2183481 26.656867,25.6031525 26.3725517,25.8874734 C26.0866852,26.1718141 25.6998358,26.3309855 25.295904,26.3309855 L25.2958523,26.331033 Z" id="Shape"></path>
                <path d="M20.5418182,24.8162637 C20.5449252,22.3112967 22.586375,20.2806593 25.1065341,20.2774945 L33.0936932,20.2774945 L33.0936932,15.0836044 C33.0936932,14.2584132 32.4194261,13.5877451 31.5882159,13.5877451 L31.3551716,13.5877451 L31.3567251,13.5877451 C31.5089791,12.9325451 31.3877976,12.2433231 31.0211427,11.6777275 L24.4244382,1.53403516 C23.672495,0.378118681 22.1219552,0.047432967 20.9598757,0.79381978 L3.95226205,11.7346549 C3.31060864,12.1472703 2.89422795,12.8302813 2.82120523,13.5875077 L1.88901205,13.5875077 C1.05939273,13.5875077 0.385125682,14.2581758 0.385125682,15.083367 L0.385125682,34.5035868 C0.385125682,35.328778 1.05939273,35.9994462 1.88901205,35.9994462 L31.588103,35.9994462 C32.4192734,35.9994462 33.0935802,35.328778 33.0935802,34.5035868 L33.0935802,29.3559824 L25.1064211,29.3559824 C22.5864609,29.352892 20.544887,27.3223385 20.5417052,24.8156308 L20.5418182,24.8162637 Z M4.23977273,13.5878242 C4.30191761,13.30812 4.47281705,13.062422 4.71517614,12.9078593 L21.7211989,1.96702418 C22.232358,1.63786945 22.9143807,1.78467429 23.2452898,2.29154242 L23.7983693,3.14300176 L7.56473295,13.587749 L4.23977273,13.5878242 Z M25.7822727,6.192 L29.841875,12.4366154 C30.0671517,12.7858589 30.0749193,13.2309099 29.8605185,13.5879033 L14.2839276,13.5879033 L25.7822727,6.192 Z" id="Shape"></path>
            </g>
        </g>
    </g>
</svg>