<svg width="98px" height="31px" viewBox="0 0 98 31" version="1.1" xmlns="http://www.w3.org/2000/svg" xmlns:xlink="http://www.w3.org/1999/xlink">
    <!-- Generator: Sketch 52 (66869) - http://www.bohemiancoding.com/sketch -->
    <defs>
        <linearGradient x1="50%" y1="0%" x2="50%" y2="100%" id="linearGradient-1">
            <stop stop-color="#53B1FF" offset="0%"></stop>
            <stop stop-color="#2979FF" offset="100%"></stop>
        </linearGradient>
        <linearGradient x1="50%" y1="0%" x2="50%" y2="100%" id="linearGradient-2">
            <stop stop-color="#74E4FF" offset="0%"></stop>
            <stop stop-color="#40C4FF" offset="100%"></stop>
        </linearGradient>
    </defs>
    <g id="Page-1" stroke="none" stroke-width="1" fill="none" fill-rule="evenodd">
        <g id="index-copy" transform="translate(-135.000000, -3816.000000)">
            <g id="Group-10" transform="translate(0.000000, 3768.000000)">
                <g id="Group-2" transform="translate(130.000000, 45.000000)">
                    <g id="2" fill-rule="nonzero">
                        <g id="分组-2" transform="translate(19.521845, 19.478155) rotate(-45.000000) translate(-19.521845, -19.478155) translate(5.236130, 6.978155)">
                            <g id="分组" transform="translate(-0.000000, 0.000000)">
                                <path d="M25,4 L12.5,4 C7.80557963,4 4,7.80557963 4,12.5 C4,17.1944204 7.80557963,21 12.5,21 L25,21 L25,25 L12.5,25 C5.59644063,25 8.45442189e-16,19.4035594 0,12.5 C-8.45442189e-16,5.59644063 5.59644063,1.26816328e-15 12.5,0 L25,0 L25,4 Z" id="合并形状" fill="url(#linearGradient-1)"></path>
                                <path d="M25,4 L13.8347736,4 C16.1176136,1.53964895 19.3790046,-2.77565434e-14 23,-2.84217094e-14 L25,-2.84217094e-14 L25,4 Z M25,21 L25,25 L23,25 C19.3790046,25 16.1176136,23.4603511 13.8347736,21 L25,21 Z" id="合并形状" fill-opacity="0.377151268" fill="#0D1424"></path>
                                <path d="M25,-7.10542736e-15 L25,4 C20.3055796,4 16.5,7.80557963 16.5,12.5 C16.5,17.1944204 20.3055796,21 25,21 L25,25 C18.0964406,25 12.5,19.4035594 12.5,12.5 C12.5,5.59644063 18.0964406,-7.10542736e-15 25,-7.10542736e-15 Z" id="合并形状" fill="url(#linearGradient-2)"></path>
                                <circle id="椭圆形" fill="#FFFFFF" cx="25" cy="12.5" r="3.5"></circle>
                            </g>
                        </g>
                    </g>
                    <g id="logo" transform="translate(52.000000, 5.000000)" fill="#8996AD">
                        <path d="M11.256,24.232 L0,24.232 L0,7.144 L11.256,7.144 L11.256,10.12 L3.336,10.12 L3.336,14.128 L10.08,14.128 L10.08,17.104 L3.336,17.104 L3.336,21.256 L11.256,21.256 L11.256,24.232 Z M26.592,17.176 C26.592,19.648 26.208,21.16 25.008,22.408 C23.784,23.68 22.176,24.376 20.232,24.376 C18.36,24.376 16.824,23.704 15.624,22.504 C13.896,20.776 13.944,18.64 13.944,15.688 C13.944,12.736 13.896,10.6 15.624,8.872 C16.824,7.672 18.312,7 20.232,7 C22.608,7 23.928,7.648 25.464,9.184 L23.208,11.44 C22.248,10.48 21.552,9.976 20.232,9.976 C19.32,9.976 18.576,10.336 18.096,10.888 C17.448,11.608 17.28,12.4 17.28,15.688 C17.28,18.976 17.448,19.792 18.096,20.512 C18.576,21.064 19.32,21.4 20.232,21.4 C21.24,21.4 21.96,21.04 22.512,20.44 C23.064,19.84 23.256,18.952 23.256,18.112 L23.256,17.512 L20.232,17.512 L20.232,14.728 L26.592,14.728 L26.592,17.176 Z M41.856,15.688 C41.856,18.64 41.88,20.776 40.152,22.504 C38.952,23.704 37.488,24.376 35.544,24.376 C33.6,24.376 32.112,23.704 30.912,22.504 C29.184,20.776 29.232,18.64 29.232,15.688 C29.232,12.736 29.184,10.6 30.912,8.872 C32.112,7.672 33.6,7 35.544,7 C37.488,7 38.952,7.672 40.152,8.872 C41.88,10.6 41.856,12.736 41.856,15.688 Z M38.52,15.688 C38.52,12.4 38.328,11.608 37.68,10.888 C37.2,10.336 36.456,9.976 35.544,9.976 C34.632,9.976 33.864,10.336 33.384,10.888 C32.736,11.608 32.568,12.4 32.568,15.688 C32.568,18.976 32.736,19.768 33.384,20.488 C33.864,21.04 34.632,21.4 35.544,21.4 C36.456,21.4 37.2,21.04 37.68,20.488 C38.328,19.768 38.52,18.976 38.52,15.688 Z" id="EGO"></path>
                        <text id="TM" font-family="Helvetica" font-size="6" font-weight="normal" letter-spacing="0.200000003">
                            <tspan x="42" y="6">T</tspan>
                            <tspan x="45.8650391" y="6">M</tspan>
                        </text>
                    </g>
                </g>
            </g>
        </g>
    </g>
</svg>