<svg width="144px" height="38px" viewBox="0 0 144 38" version="1.1" xmlns="http://www.w3.org/2000/svg" xmlns:xlink="http://www.w3.org/1999/xlink">
    <g id="Page-1" stroke="none" stroke-width="1" fill="none" fill-rule="evenodd">
        <g id="index" transform="translate(-143.000000, -525.000000)" fill="#030708" fill-rule="nonzero">
            <g id="Group" transform="translate(130.000000, 513.000000)">
                <g id="download-ios">
                    <path d="M62.098,45 L60.487,40.24 L53.773,40.24 L52.162,45 L49.317,45 L55.677,27.385 L58.631,27.385 L64.991,45 L62.098,45 Z M57.093,30.315 L54.469,38.042 L59.791,38.042 L57.167,30.315 L57.093,30.315 Z M73.304,31.951 C76.564,31.951 78.712,34.514 78.712,38.579 C78.712,42.644 76.576,45.219 73.353,45.219 C71.51,45.219 70.045,44.316 69.313,42.889 L69.251,42.889 L69.251,49.248 L66.615,49.248 L66.615,32.158 L69.166,32.158 L69.166,34.368 L69.215,34.368 C69.972,32.891 71.449,31.951 73.305,31.951 L73.304,31.951 Z M72.608,42.986 C74.696,42.986 76.002,41.276 76.002,38.579 C76.002,35.894 74.696,34.172 72.608,34.172 C70.594,34.172 69.239,35.93 69.239,38.579 C69.239,41.252 70.582,42.986 72.609,42.986 L72.608,42.986 Z M87.428,31.951 C90.687,31.951 92.835,34.514 92.835,38.579 C92.835,42.644 90.699,45.219 87.477,45.219 C85.633,45.219 84.168,44.316 83.436,42.889 L83.375,42.889 L83.375,49.248 L80.738,49.248 L80.738,32.158 L83.29,32.158 L83.29,34.368 L83.338,34.368 C84.095,32.891 85.572,31.951 87.428,31.951 Z M86.732,42.986 C88.819,42.986 90.125,41.276 90.125,38.579 C90.125,35.894 88.819,34.172 86.732,34.172 C84.718,34.172 83.362,35.93 83.362,38.579 C83.362,41.252 84.706,42.986 86.732,42.986 Z M99.464,40.093 C99.634,43.279 102.271,45.293 106.178,45.293 C110.353,45.293 112.978,43.23 112.978,39.934 C112.978,37.358 111.476,35.906 107.862,35.051 L105.922,34.575 C103.651,34.014 102.723,33.281 102.723,32.036 C102.723,30.474 104.176,29.399 106.3,29.399 C108.424,29.399 109.876,30.461 110.035,32.219 L112.696,32.219 C112.611,29.179 110.06,27.092 106.336,27.092 C102.576,27.092 99.928,29.18 99.928,32.219 C99.928,34.673 101.429,36.187 104.664,36.968 L106.947,37.518 C109.229,38.078 110.194,38.896 110.194,40.264 C110.194,41.838 108.594,42.986 106.373,42.986 C104.053,42.986 102.357,41.838 102.162,40.093 L99.464,40.093 Z M115.882,29.119 L115.882,32.159 L114.015,32.159 L114.015,34.246 L115.882,34.246 L115.882,41.619 C115.882,44.097 116.896,45.085 119.496,45.085 C120.082,45.085 120.667,45.037 120.96,44.963 L120.96,42.876 C120.79,42.913 120.362,42.937 120.094,42.937 C119.02,42.937 118.531,42.437 118.531,41.326 L118.531,34.246 L120.973,34.246 L120.973,32.158 L118.531,32.158 L118.531,29.118 L115.882,29.118 L115.882,29.119 Z M128.651,45.244 C124.977,45.244 122.56,42.717 122.56,38.579 C122.56,34.453 124.989,31.926 128.65,31.926 C132.313,31.926 134.742,34.453 134.742,38.579 C134.742,42.717 132.325,45.244 128.651,45.244 Z M128.651,43.071 C130.726,43.071 132.057,41.436 132.057,38.579 C132.057,35.735 130.714,34.099 128.651,34.099 C126.588,34.099 125.245,35.735 125.245,38.579 C125.245,41.436 126.588,43.071 128.651,43.071 Z M136.78,45 L139.416,45 L139.416,37.31 C139.416,35.49 140.466,34.355 142.163,34.355 C142.676,34.355 143.14,34.417 143.347,34.502 L143.347,32.048 C143.049732,31.9872649 142.747385,31.9547868 142.444,31.951 C140.93,31.951 139.783,32.841 139.355,34.343 L139.295,34.343 L139.295,32.158 L136.78,32.158 L136.78,45 Z M150.354,34.05 C148.511,34.05 147.217,35.454 147.082,37.395 L153.503,37.395 C153.443,35.43 152.197,34.05 150.354,34.05 Z M153.491,41.228 L155.994,41.228 C155.627,43.572 153.406,45.244 150.464,45.244 C146.692,45.244 144.409,42.693 144.409,38.64 C144.409,34.612 146.729,31.926 150.354,31.926 C153.918,31.926 156.14,34.441 156.14,38.335 L156.14,39.238 L147.07,39.238 L147.07,39.397 C147.07,41.631 148.413,43.107 150.525,43.107 C152.026,43.107 153.137,42.351 153.491,41.228 Z M52.89,12.84 L55.968,12.84 C58.685,12.84 60.291,14.535 60.291,17.417 C60.291,20.305 58.691,22 55.968,22 L52.89,22 L52.89,12.84 Z M54.032,13.869 L54.032,20.972 L55.892,20.972 C57.968,20.972 59.123,19.702 59.123,17.43 C59.123,15.138 57.974,13.869 55.893,13.869 L54.033,13.869 L54.032,13.869 Z M64.971,22.114 C63.143,22.114 61.911,20.8 61.911,18.699 C61.911,16.592 63.143,15.284 64.971,15.284 C66.793,15.284 68.024,16.592 68.024,18.699 C68.024,20.8 66.793,22.114 64.971,22.114 Z M64.971,21.144 C66.139,21.144 66.901,20.254 66.901,18.699 C66.901,17.144 66.139,16.255 64.971,16.255 C63.803,16.255 63.035,17.144 63.035,18.699 C63.035,20.254 63.803,21.143 64.971,21.143 L64.971,21.144 Z M78.233,15.398 L77.14,15.398 L75.82,20.768 L75.795,20.768 L74.296,15.398 L73.23,15.398 L71.738,20.768 L71.713,20.768 L70.393,15.398 L69.295,15.398 L71.142,22 L72.265,22 L73.751,16.89 L73.776,16.89 L75.268,22 L76.391,22 L78.232,15.398 L78.233,15.398 Z M79.833,22 L80.938,22 L80.938,18.115 C80.938,16.998 81.618,16.262 82.658,16.262 C83.674,16.262 84.175,16.846 84.175,17.912 L84.175,22 L85.28,22 L85.28,17.715 C85.28,16.217 84.442,15.285 82.995,15.285 C81.973,15.285 81.268,15.741 80.9,16.452 L80.874,16.452 L80.874,15.398 L79.834,15.398 L79.834,22 L79.833,22 Z M87.44,22 L88.544,22 L88.544,12.84 L87.44,12.84 L87.44,22 Z M93.472,22.114 C91.644,22.114 90.412,20.8 90.412,18.699 C90.412,16.592 91.644,15.284 93.472,15.284 C95.293,15.284 96.525,16.592 96.525,18.699 C96.525,20.8 95.293,22.114 93.472,22.114 Z M93.472,21.144 C94.64,21.144 95.402,20.254 95.402,18.699 C95.402,17.144 94.64,16.255 93.472,16.255 C92.304,16.255 91.536,17.144 91.536,18.699 C91.536,20.254 92.304,21.143 93.472,21.143 L93.472,21.144 Z M100.513,21.174 C101.554,21.174 102.353,20.444 102.353,19.493 L102.353,18.953 L100.589,19.061 C99.7,19.118 99.193,19.511 99.193,20.134 C99.193,20.762 99.72,21.174 100.513,21.174 Z M100.265,22.114 C98.951,22.114 98.069,21.321 98.069,20.134 C98.069,19.004 98.939,18.293 100.462,18.204 L102.354,18.096 L102.354,17.544 C102.354,16.738 101.821,16.255 100.907,16.255 C100.056,16.255 99.523,16.655 99.383,17.303 L98.317,17.303 C98.393,16.16 99.37,15.284 100.932,15.284 C102.481,15.284 103.458,16.122 103.458,17.436 L103.458,22 L102.411,22 L102.411,20.864 L102.386,20.864 C101.992,21.619 101.154,22.114 100.266,22.114 L100.265,22.114 Z M108.062,22.114 C106.38,22.114 105.237,20.769 105.237,18.699 C105.237,16.629 106.374,15.284 108.037,15.284 C108.983,15.284 109.744,15.748 110.137,16.471 L110.163,16.471 L110.163,12.841 L111.268,12.841 L111.268,22 L110.214,22 L110.214,20.883 L110.194,20.883 C109.77,21.645 109.014,22.114 108.062,22.114 Z M108.272,16.255 C107.104,16.255 106.367,17.208 106.367,18.699 C106.367,20.197 107.104,21.143 108.272,21.143 C109.408,21.143 110.17,20.178 110.17,18.699 C110.17,17.227 109.408,16.255 108.272,16.255 Z M119.562,22.115 C117.733,22.115 116.502,20.8 116.502,18.699 C116.502,16.592 117.733,15.284 119.562,15.284 C121.383,15.284 122.614,16.592 122.614,18.699 C122.614,20.8 121.383,22.114 119.561,22.114 L119.562,22.115 Z M119.562,21.143 C120.729,21.143 121.491,20.254 121.491,18.699 C121.491,17.144 120.729,16.255 119.561,16.255 C118.393,16.255 117.625,17.144 117.625,18.699 C117.625,20.254 118.393,21.143 119.561,21.143 L119.562,21.143 Z M124.425,22 L125.53,22 L125.53,18.115 C125.53,16.998 126.209,16.262 127.25,16.262 C128.266,16.262 128.767,16.846 128.767,17.912 L128.767,22 L129.872,22 L129.872,17.715 C129.872,16.217 129.034,15.285 127.586,15.285 C126.564,15.285 125.86,15.741 125.492,16.452 L125.466,16.452 L125.466,15.398 L124.426,15.398 L124.426,22 L124.425,22 Z M135.695,13.805 L135.695,15.398 L134.712,15.398 L134.712,16.306 L135.696,16.306 L135.696,20.286 C135.696,21.556 136.166,22.051 137.378,22.051 C137.638,22.051 137.943,22.031 138.076,22 L138.076,21.073 C138,21.086 137.746,21.105 137.619,21.105 C137.054,21.105 136.8,20.832 136.8,20.229 L136.8,16.306 L138.083,16.306 L138.083,15.398 L136.8,15.398 L136.8,13.805 L135.696,13.805 L135.695,13.805 Z M140.015,22 L141.119,22 L141.119,18.153 C141.119,17.011 141.798,16.262 142.896,16.262 C143.931,16.262 144.457,16.89 144.457,17.937 L144.457,22 L145.562,22 L145.562,17.734 C145.562,16.262 144.686,15.284 143.239,15.284 C142.236,15.284 141.512,15.716 141.144,16.452 L141.119,16.452 L141.119,12.84 L140.014,12.84 L140.014,22 L140.015,22 Z M150.312,16.243 C149.277,16.243 148.553,17.036 148.484,18.134 L152.07,18.134 C152.045,17.03 151.353,16.243 150.312,16.243 Z M152.045,20.108 L153.13,20.108 C152.94,21.264 151.822,22.114 150.382,22.114 C148.49,22.114 147.341,20.8 147.341,18.724 C147.341,16.674 148.509,15.284 150.331,15.284 C152.114,15.284 153.213,16.579 153.213,18.579 L153.213,18.998 L148.477,18.998 L148.477,19.061 C148.477,20.324 149.22,21.156 150.407,21.156 C151.245,21.156 151.861,20.73 152.045,20.108 Z M32.422,14 C32.964,17.327 29.875,21.442 26.184,21.308 C25.641,17.075 29.619,14.223 32.422,14 Z M33.054,20.922 C36.73,20.922 39.081,24.398 39.081,24.398 C39.081,24.398 35.495,26.299 35.495,30.429 C35.495,35.33 40,36.756 40,36.756 C40,36.756 36.444,45 32.451,45 C30.206,45 30.056,43.738 27.073,43.738 C24.481,43.738 23.608,45 21.633,45 C17.868,45 13,36.964 13,30.429 C13,23.641 17.927,20.922 21.016,20.922 C23.728,20.922 24.858,22.482 27.042,22.482 C28.881,22.482 30.328,20.922 33.054,20.922 Z" id="Shape"></path>
                </g>
            </g>
        </g>
    </g>
</svg>