<?xml version="1.0" encoding="UTF-8"?>
<svg width="38px" height="36px" viewBox="0 0 38 36" version="1.1" xmlns="http://www.w3.org/2000/svg" xmlns:xlink="http://www.w3.org/1999/xlink">
    <!-- Generator: Sketch 52 (66869) - http://www.bohemiancoding.com/sketch -->
    <title>np_medical_1658499_000000</title>
    <desc>Created with Sketch.</desc>
    <g id="Page-1" stroke="none" stroke-width="1" fill="none" fill-rule="evenodd">
        <g id="Artboard" transform="translate(-224.000000, -938.000000)" fill="#FFFFFF" fill-rule="nonzero">
            <g id="np_medical_1658499_000000" transform="translate(224.000000, 938.000000)">
                <path d="M31.7454375,8.17747826 L26.7975208,8.17747826 L26.7975208,4.10869565 C26.7975208,1.95652174 25.0162708,0.195652174 22.8391875,0.195652174 L15.1608125,0.195652174 C12.9837292,0.195652174 11.2024792,1.95652174 11.2024792,4.10869565 L11.2024792,8.13952174 L6.2545625,8.13952174 C2.93019583,8.13952174 0.197916667,10.8388957 0.197916667,14.1268696 L0.197916667,29.7790435 C0.197916667,33.0653739 2.92853333,35.7663913 6.2545625,35.7663913 L31.7454375,35.7663913 C35.0698042,35.7663913 37.8020833,33.0670174 37.8020833,29.7790435 L37.8020833,14.1268696 C37.8020833,10.839013 35.0714667,8.17786957 31.7454375,8.17786957 L31.7454375,8.17747826 Z M14.9225208,4.10869565 C14.9225208,3.99099913 15.0415796,3.87330261 15.1606383,3.87330261 L22.8006175,3.87330261 C22.9196762,3.87330261 23.038735,3.99099913 23.038735,4.10869565 L23.038735,8.13952174 L14.9225208,8.13952174 L14.9225208,4.10869565 Z M26.084625,24.4166087 L21.49375,24.4166087 L21.49375,28.9944783 L16.5054583,28.9960067 L16.5054583,24.4165719 L11.9145833,24.4165719 L11.9145833,19.5252676 L16.5454375,19.5252676 L16.5454375,14.947398 L21.4933542,14.947398 L21.4933542,19.5252676 L26.1242083,19.5252676 L26.1242083,24.4165719 L26.084625,24.4166087 Z" id="Shape"></path>
            </g>
        </g>
    </g>
</svg>