<?xml version="1.0" encoding="UTF-8"?>
<svg width="32px" height="30px" viewBox="0 0 32 30" version="1.1" xmlns="http://www.w3.org/2000/svg" xmlns:xlink="http://www.w3.org/1999/xlink">
    <!-- Generator: Sketch 52 (66869) - http://www.bohemiancoding.com/sketch -->
    <title>np_cart_2091744_000000</title>
    <desc>Created with Sketch.</desc>
    <g id="Page-1" stroke="none" stroke-width="1" fill="none" fill-rule="evenodd">
        <g id="Artboard" transform="translate(-400.000000, -887.000000)" fill="#FFFFFF">
            <g id="np_cart_2091744_000000" transform="translate(400.000000, 887.000000)">
                <path d="M31.1665778,8.2825 L9.94311111,6.94739286 C9.67227733,5.23982143 8.59587556,3.768 7.05283556,3.00060714 L1.28608,0.104392857 C0.847182222,-0.116032143 0.313848889,0.0625392857 0.0944,0.503392857 C-0.125045333,0.945642857 0.0527324444,1.48135714 0.491626667,1.70178571 L6.25838222,4.598 L6.25699342,4.598 C7.47228231,5.20207143 8.2389312,6.44789286 8.23338453,7.8095 L8.23338453,17.7130714 L6.54172231,19.1151429 C5.87366898,19.6662143 5.4875712,20.4893214 5.48895787,21.3570357 L5.48895787,23.0157857 C5.48895787,23.25295 5.58340053,23.4789643 5.75007076,23.6463571 C5.91674098,23.81375 6.14313742,23.9086321 6.37783964,23.9086321 L9.58061298,23.9086321 C8.03199076,24.2043929 6.96255076,25.6357393 7.11117298,27.2108107 C7.25839431,28.787275 8.57645298,29.9912393 10.1514574,29.9912393 C11.7278485,29.9912393 13.0445063,28.787275 13.1931285,27.2108107 C13.3417401,25.6357393 12.2723108,24.2043821 10.7236885,23.9086321 L23.3043108,23.9086321 C21.7556885,24.2043929 20.6862485,25.6343464 20.8348708,27.2108107 C20.9820921,28.7858821 22.3001508,29.9898107 23.8751552,29.9898107 C25.4515463,29.9898107 26.7682041,28.7858464 26.9168263,27.2108107 C27.0640476,25.6343464 25.9945863,24.2043821 24.4473863,23.9086321 L27.648773,23.9086321 C28.1404352,23.9086321 28.5376619,23.5082393 28.5376619,23.015775 C28.5376619,22.5219179 28.1404352,22.1229179 27.648773,22.1229179 L7.26690631,22.1229179 L7.26690631,21.357025 C7.26690631,21.0222036 7.41551787,20.705525 7.67245298,20.4920607 L9.44191076,19.0258107 L21.7501774,19.0258107 C24.2862841,19.0258107 25.8653774,18.3087393 27.0308885,16.6276679 L31.8404885,9.683025 C32.0238201,9.41935357 32.0515996,9.07616786 31.9113223,8.78459643 C31.7724352,8.49441786 31.4877134,8.303275 31.1668601,8.28238214 L31.1665778,8.2825 Z" id="Path"></path>
            </g>
        </g>
    </g>
</svg>