<?xml version="1.0" encoding="UTF-8"?>
<svg width="35px" height="36px" viewBox="0 0 35 36" version="1.1" xmlns="http://www.w3.org/2000/svg" xmlns:xlink="http://www.w3.org/1999/xlink">
    <!-- Generator: Sketch 52 (66869) - http://www.bohemiancoding.com/sketch -->
    <title>np_social_1223102_000000</title>
    <desc>Created with Sketch.</desc>
    <g id="Page-1" stroke="none" stroke-width="1" fill="none" fill-rule="evenodd">
        <g id="Artboard" transform="translate(-473.000000, -884.000000)" fill="#FFFFFF">
            <g id="np_social_1223102_000000" transform="translate(473.000000, 884.000000)">
                <path d="M30.4798958,31.89672 C32.4480625,29.808432 33.6158958,27 33.6158958,23.90508 C33.6158958,20.701656 32.3028125,17.78508 30.1893958,15.69672 C29.2779375,23.22 22.7154375,29.05344 14.7671563,29.01672 L10.9390313,29.01672 C12.8716146,33.01344 16.9546563,35.74836 21.7314271,35.71344 L34.7452292,35.6403168 L30.4798958,31.89672 Z" id="Path"></path>
                <path d="M15.2399479,0.3234384 C7.6934375,0.28828188 1.56807292,6.3001584 1.56807292,13.7517984 C1.56807292,17.2800864 2.91673958,20.4834384 5.17686458,22.8950784 L0.292177083,27.2150784 L15.1675417,27.25164 C22.7140521,27.2882016 28.8394167,21.24 28.8394167,13.82328 C28.8750208,6.37164 22.7866042,0.32328 15.2400937,0.32328 L15.2399479,0.3234384 Z M11.4475521,17.9281584 L9.18742708,17.9281584 L9.18742708,11.9165184 L11.4475521,11.9165184 L11.4475521,17.9281584 Z M20.0524479,17.9281584 L12.5784896,17.9281584 L12.5784896,11.8797984 L15.9694062,8.2081584 L17.4277396,8.4598776 L16.4066146,11.5915896 L21.4735937,11.5915896 L20.0524479,17.9281584 Z" id="Shape" fill-rule="nonzero"></path>
            </g>
        </g>
    </g>
</svg>