<?xml version="1.0" encoding="UTF-8"?>
<svg width="27px" height="36px" viewBox="0 0 27 36" version="1.1" xmlns="http://www.w3.org/2000/svg" xmlns:xlink="http://www.w3.org/1999/xlink">
    <!-- Generator: Sketch 52 (66869) - http://www.bohemiancoding.com/sketch -->
    <title>np_airport_738346_000000</title>
    <desc>Created with Sketch.</desc>
    <g id="Page-1" stroke="none" stroke-width="1" fill="none" fill-rule="evenodd">
        <g id="Artboard" transform="translate(-358.000000, -884.000000)" fill="#FFFFFF">
            <g id="np_airport_738346_000000" transform="translate(358.000000, 884.000000)">
                <path d="M13.5,1.27897698e-15 C9.97679189,1.27897698e-15 6.59602703,1.380924 4.10472973,3.83904 C1.61339595,6.29856 0.213810811,9.63288 0.213810811,13.10904 C0.213810811,19.43856 10.3628919,32.51124 12.9242432,35.68644 C13.0639172,35.8622208 13.2777061,35.9634708 13.5043054,35.9634708 C13.7294964,35.9634708 13.9432743,35.8622208 14.0829446,35.68644 C16.6369986,32.497056 26.793377,19.42308 26.793377,13.10904 C26.793377,9.631368 25.3937919,6.29568 22.8995392,3.8376 C20.4067824,1.37808 17.0244851,-0.00144 13.4998905,1.27897698e-15 L13.5,1.27897698e-15 Z M14.6515865,21.77568 C11.9222149,22.1300568 9.18153243,21.211776 7.23461351,19.290852 C5.28915405,17.369928 4.35845676,14.665572 4.71620676,11.972772 C5.05969419,10.10106 5.97469865,8.37558 7.33867297,7.029972 C8.7026473,5.684184 10.4499851,4.781376 12.3482676,4.442472 C15.0776392,4.0895028 17.8183216,5.00778 19.7652405,6.928704 C21.7107,8.848224 22.6413973,11.552544 22.2836473,14.245344 C21.9401599,16.11846 21.0251554,17.842536 19.6611811,19.188144 C18.2972068,20.533752 16.5498689,21.43674 14.6515865,21.775644 L14.6515865,21.77568 Z" id="Shape" fill-rule="nonzero"></path>
                <path d="M7.16631081,14.26788 L9.31416081,16.212708 L19.4048635,13.211784 L19.9364716,12.082572 L18.8803703,11.47788 L14.1429649,12.898188 L10.8805622,10.71288 L9.09473108,11.244456 L11.7599595,13.597128 L9.37549459,14.325552 L8.63722703,13.917744 L7.34593378,13.917744 C7.01242541,13.9036817 6.94542162,14.0710248 7.16635095,14.2679016 L7.16631081,14.26788 Z" id="Path"></path>
            </g>
        </g>
    </g>
</svg>